<?xml version="1.0" encoding="utf-8"?>
<!-- Generator: Adobe Illustrator 21.0.0, SVG Export Plug-In . SVG Version: 6.00 Build 0)  -->
<svg version="1.1" id="Layer_1" xmlns="http://www.w3.org/2000/svg" xmlns:xlink="http://www.w3.org/1999/xlink" x="0px" y="0px"
	 viewBox="0 0 175 149" style="enable-background:new 0 0 175 149;" xml:space="preserve">
<style type="text/css">
	.st0{fill:#FFFFFF;}
	.st1{fill:#87C341;}
	.st2{fill:#E0242A;}
	.st3{fill:#F18221;}
	.st4{fill:#F6CE15;}
	.st5{fill:#221F1F;}
	.st6{fill:#E6E6E6;}
</style>
<g id="XMLID_1027_">
	<path id="XMLID_994_" class="st0" d="M87.6,0.4C39.2,0.4-0.2,39.7-0.2,88.1v47.6c0,7.3,5.9,13.1,13.1,13.1h149.3
		c7.3,0,13.1-5.9,13.1-13.1V88.1C175.4,39.7,136,0.4,87.6,0.4z"/>
	<path id="XMLID_753_" class="st1" d="M12.6,105.5c4.4,0,8.4-1.7,11.3-4.6c2.3-2.2,5.9-2.2,8.2,0c2.9,2.8,6.9,4.6,11.3,4.6
		c4.4,0,8.4-1.7,11.3-4.6c2.3-2.2,5.9-2.2,8.2,0c2.9,2.8,6.9,4.6,11.3,4.6s8.4-1.7,11.3-4.6c2.3-2.2,5.9-2.2,8.2,0
		c2.9,2.8,6.9,4.6,11.3,4.6c4.4,0,8.4-1.7,11.3-4.6c2.3-2.2,5.9-2.2,8.2,0c2.9,2.8,6.9,4.6,11.3,4.6c4.4,0,8.4-1.7,11.3-4.6
		c2.3-2.2,5.9-2.2,8.2,0c2.7,2.6,6.2,4.3,10.2,4.5c1.2-5.6,1.9-11.4,1.9-17.3c0-43.7-35.6-79.3-79.3-79.3
		C43.9,8.9,8.3,44.4,8.3,88.1c0,5.9,0.7,11.6,1.9,17.2C11,105.4,11.8,105.5,12.6,105.5z"/>
	<path id="XMLID_380_" class="st2" d="M32,100.9c2.9,2.8,6.9,4.6,11.3,4.6c4.4,0,8.4-1.7,11.3-4.6c2.3-2.2,5.9-2.2,8.2,0
		c2.9,2.8,6.9,4.6,11.3,4.6s8.4-1.7,11.3-4.6c2.3-2.2,5.9-2.2,8.2,0c2.9,2.8,6.9,4.6,11.3,4.6c4.4,0,8.4-1.7,11.3-4.6
		c2.3-2.2,5.9-2.2,8.2,0c2.9,2.8,6.9,4.6,11.3,4.6c4.4,0,8.4-1.7,11.3-4.6c1.2-1.2,2.8-1.7,4.4-1.6c0.6-3.6,1-7.3,1-11.1
		c0-35.5-28.9-64.3-64.3-64.3c-35.5,0-64.3,28.9-64.3,64.3c0,4.2,0.4,8.3,1.2,12.3C26.7,98.7,29.9,98.9,32,100.9z"/>
	<path id="XMLID_381_" class="st3" d="M43.3,105.5c4.4,0,8.4-1.7,11.3-4.6c2.3-2.2,5.9-2.2,8.2,0c2.9,2.8,6.9,4.6,11.3,4.6
		s8.4-1.7,11.3-4.6c2.3-2.2,5.9-2.2,8.2,0c2.9,2.8,6.9,4.6,11.3,4.6c4.4,0,8.4-1.7,11.3-4.6c2.3-2.2,5.9-2.2,8.2,0
		c2.6,2.5,6,4.2,9.8,4.5c2-5.4,3.1-11.2,3.1-17.3c0-27.3-22.1-49.4-49.4-49.4S38.2,60.9,38.2,88.1c0,6.1,1.1,11.8,3.1,17.2
		C41.9,105.4,42.6,105.5,43.3,105.5z"/>
	<path id="XMLID_382_" class="st4" d="M54.5,100.9c2.3-2.2,5.9-2.2,8.2,0c2.9,2.8,6.9,4.6,11.3,4.6s8.4-1.7,11.3-4.6
		c2.3-2.2,5.9-2.2,8.2,0c2.9,2.8,6.9,4.6,11.3,4.6c4.4,0,8.4-1.7,11.3-4.6c1.6-1.5,3.7-2,5.7-1.4c1.2-3.6,1.8-7.4,1.8-11.3
		c0-19.8-16-35.8-35.8-35.8c-19.8,0-35.8,16-35.8,35.8c0,4.6,0.9,9,2.5,13C54.3,101.1,54.4,101,54.5,100.9z"/>
	<polygon id="XMLID_384_" class="st0" points="106.2,86.4 87.3,56.2 68.3,86.4 32.6,80.8 52.9,110.2 121.7,110.2 141.9,80.8 	"/>
	<path id="XMLID_515_" class="st5" d="M51,103.5L37.4,83.8l49.9,7.8l49.9-7.8l-12.3,17.9c1.1,1,2.4,1.7,3.7,2.4l18-26.2l-39.8,6.2
		L89.5,56.3v-0.2h-0.1l-2.1-3.3l-2.1,3.3h-0.1v0.2L67.7,84.1l-39.8-6.2l18.8,27.3C48.2,104.8,49.6,104.3,51,103.5z M89.5,63
		l13.6,21.6l-13.6,2.1V63z M85.1,63v23.8l-13.6-2.1L85.1,63z"/>
	<path id="XMLID_387_" class="st6" d="M74,105.5c4.4,0,8.4-1.7,11.3-4.6c2.3-2.2,5.9-2.2,8.2,0c2.9,2.8,6.9,4.6,11.3,4.6
		c2.7,0,5.3-0.7,7.5-1.9L87.3,91.7l-22.6,10.8C67.3,104.4,70.5,105.5,74,105.5z"/>
	<g id="XMLID_415_">
		<path id="XMLID_935_" class="st5" d="M155.3,134.2c-1.4,0-2.5-1.3-2.2-2.7c0.2-1.1,1.2-1.8,2.3-1.8c1.8,0,3.8-0.1,4.5-0.3
			c0.7-0.7,0.9-1.8,0.8-2.6c-0.1-0.8-0.5-1.7-1.3-2.1l-3.9,0c-1.1,0-2.1-0.8-2.3-1.9c-0.3-1.4,0.8-2.7,2.2-2.7h0l4.4,0
			c0.2,0,0.4,0,0.6,0.1c2.5,0.8,4.3,3,4.8,5.8c0.5,2.8-0.6,5.6-2.8,7.2C162,133.6,161.1,134.2,155.3,134.2L155.3,134.2z"/>
		<path id="XMLID_934_" class="st5" d="M75,134.3c-4,0-7.7-1.3-9.9-3.6c-0.5-0.5-1.7-1.8-1.7-10.5c0-1.2,1-2.2,2.2-2.2h0.1
			c1.3,0,2.3,1,2.3,2.3c0,2.5,0.1,5.1,0.4,6.5c0.1,0.5,0.4,1,0.8,1.4c2,1.3,5.2,1.9,8.3,1.3c2.3-0.4,4.2-1.3,5.2-2.5
			c0.3-0.3,0.4-0.8,0.4-1.2l0.1-5.6c0-1.2,1-2.2,2.3-2.2h0c1.3,0,2.3,1,2.2,2.3l-0.1,6.5c0,0.6-0.1,1.2-0.4,1.7
			c-1.5,2.8-4.7,4.9-9,5.6C77.2,134.2,76.1,134.3,75,134.3z"/>
		<path id="XMLID_933_" class="st5" d="M144.3,124.5c0-1.3-1-2.3-2.3-2.3h0c-1.3,0-2.3,1-2.3,2.3l0,4.2c-0.2,0.7-0.6,0.9-1.1,0.9
			c-0.5,0-0.8-0.2-1-0.7c-0.1-0.7-0.2-2.7-0.2-4.5c0-1.2-1-2.2-2.3-2.2h0c-1.1,0-2,0.8-2.2,1.9c0,0.2-0.1,0.3-0.1,0.5l0,4.2
			c-0.2,0.7-0.7,0.8-1.1,0.9c-0.5,0.1-0.9-0.3-1-0.7c-0.1-0.7-0.2-2.7-0.2-4.4c0-1.2-1-2.2-2.3-2.2h0c-1.1,0-2,0.8-2.2,1.8
			c0,0.2-0.1,0.3-0.1,0.5l0,2.5c0,0.8-0.5,1.6-1.2,1.9c-0.5,0.3-1.2,0.5-2,0.6c-1.7,0.3-15,0.2-16.3-0.3c-0.6-0.2-1-0.8-1.1-1.5
			c-0.1-0.9-0.1-2-0.1-3.1c0-0.2,0-0.4-0.1-0.5c-0.2-1.1-1.1-1.9-2.2-1.9h0c-1.2,0-2.3,1-2.3,2.3l0,3.1c0,0.5-0.2,1-0.7,1.3
			c-0.5,0.3-1.1,0.6-1.8,0.7c-0.7,0.1-1.3,0.1-1.9,0c-0.9-0.2-1.6-1-1.7-1.9c-0.1-2.2-0.2-6.1-0.2-9.5c0-1.3-1-2.3-2.3-2.3h0
			c-1.3,0-2.3,1-2.3,2.3c0,12.1,0.5,12.8,1.1,13.5c1.5,1.7,3.8,2.6,6.3,2.6c0.6,0,1.2,0,1.7-0.1c1.2-0.2,2.3-0.6,3.2-1.1
			c0.5-0.3,1-0.3,1.5,0c1.6,0.9,15.2,1.4,17.3,1.4c0.9,0,1.8-0.1,2.6-0.2c1.1-0.2,2.1-0.5,3-0.9c0.7-0.3,1.4-0.3,2,0.1
			c0.9,0.6,1.9,0.9,3,0.9c0.2,0,0.5,0,0.7-0.1c0.6-0.1,1.2-0.3,1.8-0.6c0.6-0.3,1.3-0.3,1.8,0c0.8,0.4,1.6,0.6,2.5,0.6
			c0.2,0,0.5,0,0.7-0.1c2.4-0.3,4.4-2.2,5-4.8c0-0.2,0.1-0.3,0.1-0.5L144.3,124.5z"/>
		<path id="XMLID_932_" class="st5" d="M148.5,134.2c-1.1-0.2-1.9-1.2-1.9-2.3v-13.6c0-1.1,0.8-2.2,1.9-2.3c1.4-0.3,2.7,0.8,2.7,2.2
			v13.9C151.2,133.3,149.9,134.4,148.5,134.2z"/>
		<circle id="XMLID_931_" class="st5" cx="98.9" cy="117.6" r="3.3"/>
		<circle id="XMLID_930_" class="st5" cx="75.6" cy="123.5" r="3.3"/>
		<g id="XMLID_924_">
			<path id="XMLID_929_" class="st5" d="M21.6,125.8c2.2,0.3,4.1-1.6,3.8-3.8c-0.2-1.4-1.3-2.5-2.7-2.7c-2.2-0.3-4.1,1.6-3.8,3.8
				C19,124.4,20.2,125.5,21.6,125.8z"/>
			<path id="XMLID_926_" class="st5" d="M60.9,121.8c-0.3-2.4-2.2-4.4-4.6-5c-0.1,0-0.2,0-0.3-0.1c-5.7-0.6-8,2.5-8.4,5.3
				c0,0.4-0.1,0.7,0,1.1c0,0.4-0.3,0.7-0.7,0.7c0,0-11.6,0-11.7,0c0,0-0.1,0-0.1,0c-0.4,0-0.8-0.4-0.8-0.8l0-2.8
				c0-1.3-1-2.3-2.2-2.3c-1.3,0-2.3,1-2.3,2.2l-0.1,4.8c0,1.2-0.6,2.3-1.6,3c-1.1,0.7-2.5,1.2-4.1,1.5c-2.9,0.5-5.9,0.1-7.9-1
				c-0.7-0.4-1.2-1.2-1.3-2c-0.2-1.5-0.3-3.9-0.3-6.1c0-1.2-1-2.3-2.2-2.3l-0.1,0c-1.3,0-2.3,1-2.3,2.2c-0.1,8.7,1.2,10,1.7,10.5
				c2.3,2.3,5.9,3.6,9.9,3.6c1.1,0,2.2-0.1,3.3-0.3c3.7-0.7,6.7-2.3,8.4-4.6c0.4-0.6,1.1-1,1.8-1c0.1,0,11.7,0,11.8,0
				c10.2-0.1,10.7-0.4,11.3-0.7C60.1,126.4,61.3,124.1,60.9,121.8z M56,123.5c-0.5,0.1-1.5,0.1-2.8,0.1c-0.6,0-1.1-0.5-1.1-1.1
				c0-0.1,0-0.2,0.1-0.3c0.3-0.9,1.5-1.1,2.5-1.1c0.3,0,0.5,0,0.7,0C57.1,121.3,57.2,123.4,56,123.5z"/>
			<path id="XMLID_925_" class="st5" d="M21.6,125.8c2.2,0.3,4.1-1.6,3.8-3.8c-0.2-1.4-1.3-2.5-2.7-2.7c-2.2-0.3-4.1,1.6-3.8,3.8
				C19,124.4,20.2,125.5,21.6,125.8z"/>
		</g>
		<g id="XMLID_905_">
			<circle id="XMLID_923_" class="st5" cx="105.1" cy="117.6" r="3.3"/>
		</g>
		<g id="XMLID_560_">
			<path id="XMLID_760_" class="st5" d="M71.5,134.5c-2.4,0.5-4.7,1.1-7,1.9c-0.8,0.3-0.4,2.5,0.2,2.3c2.3-0.8,4.6-1.4,7-1.9
				C72.5,136.6,72.3,134.4,71.5,134.5L71.5,134.5z"/>
		</g>
	</g>
</g>
</svg>
